<?xml version="1.0" standalone="no"?>
<!DOCTYPE svg PUBLIC "-//W3C//DTD SVG 20010904//EN"
 "http://www.w3.org/TR/2001/REC-SVG-20010904/DTD/svg10.dtd">
<svg version="1.0" xmlns="http://www.w3.org/2000/svg"
 width="200.000000pt" height="200.000000pt" viewBox="0 0 200.000000 200.000000"
 preserveAspectRatio="xMidYMid meet">

<g transform="translate(0.000000,200.000000) scale(0.100000,-0.100000)"
fill="#000000" stroke="none">
<path d="M845 1426 c-78 -33 -155 -112 -185 -193 -18 -47 -21 -73 -18 -134 8
-133 74 -231 197 -287 103 -48 249 -32 336 37 21 16 23 20 10 31 -11 9 -20 8
-44 -9 -45 -33 -108 -51 -170 -51 -138 2 -246 86 -286 224 -49 169 77 349 260
371 64 8 159 -20 213 -64 33 -25 42 -28 51 -17 9 11 5 20 -21 41 -55 47 -115
68 -203 72 -68 3 -89 0 -140 -21z"/>
<path d="M882 1371 c-112 -39 -189 -156 -179 -273 13 -153 138 -258 293 -245
79 6 165 50 142 73 -11 12 -21 10 -62 -11 -97 -49 -209 -27 -279 55 -106 125
-55 310 100 366 70 24 141 14 208 -32 28 -19 41 -22 49 -14 17 17 -44 66 -105
84 -67 20 -102 20 -167 -3z"/>
<path d="M1182 1268 c-15 -15 -15 -61 0 -76 7 -7 24 -12 38 -12 14 0 31 5 38
12 7 7 12 24 12 38 0 14 -5 31 -12 38 -15 15 -61 15 -76 0z"/>
<path d="M1128 1252 c-33 -6 -34 -64 -1 -77 24 -9 32 6 25 45 -5 26 -11 35
-24 32z"/>
<path d="M1290 1230 c0 -16 -5 -32 -11 -36 -16 -10 15 -26 34 -18 34 13 31 68
-3 77 -16 4 -20 0 -20 -23z"/>
<path d="M1165 1153 c-17 -3 -20 -10 -17 -49 3 -30 10 -47 22 -54 13 -7 20
-24 22 -53 3 -37 6 -42 28 -42 22 0 25 5 28 42 2 29 9 46 22 53 12 7 19 24 21
54 4 42 2 45 -25 50 -30 6 -68 6 -101 -1z"/>
<path d="M1080 1124 c0 -14 7 -40 14 -57 8 -18 16 -45 18 -62 2 -22 8 -30 23
-30 15 0 21 8 23 34 2 19 -2 37 -8 41 -7 4 -15 28 -17 54 -5 40 -9 46 -29 46
-19 0 -24 -5 -24 -26z"/>
<path d="M1305 1101 c-4 -29 -13 -52 -21 -55 -10 -4 -14 -17 -12 -38 2 -25 8
-33 23 -33 15 0 21 8 23 30 1 17 7 39 13 51 18 35 16 88 -2 92 -13 2 -18 -8
-24 -47z"/>
<path d="M570 725 c0 -9 5 -15 11 -13 6 2 11 8 11 13 0 5 -5 11 -11 13 -6 2
-11 -4 -11 -13z"/>
<path d="M742 675 c-7 -35 -15 -71 -18 -80 -4 -9 0 -15 9 -15 10 0 18 13 23
35 3 19 12 39 20 46 15 13 35 4 29 -14 -14 -47 -15 -67 -1 -67 14 0 26 41 26
87 0 22 -3 25 -30 21 -29 -4 -31 -3 -25 24 5 20 3 28 -7 28 -10 0 -18 -21 -26
-65z"/>
<path d="M885 728 c-6 -21 -25 -118 -25 -132 0 -8 15 -13 40 -14 46 -2 63 19
58 71 -3 27 -7 32 -30 32 -24 -1 -26 2 -21 27 5 28 -13 41 -22 16z m51 -72 c7
-19 -13 -56 -31 -56 -18 0 -20 41 -3 58 16 16 27 15 34 -2z"/>
<path d="M1236 723 c-12 -46 -27 -135 -23 -140 10 -10 27 8 27 28 0 29 18 59
36 59 12 0 14 -8 8 -45 -7 -50 11 -65 22 -17 3 15 8 34 10 42 6 25 -12 43 -39
38 -23 -4 -24 -3 -17 24 7 21 5 28 -5 28 -8 0 -16 -8 -19 -17z"/>
<path d="M1688 713 c-3 -24 -7 -28 -30 -25 -33 4 -61 -33 -56 -75 3 -25 7 -28
44 -29 l42 -2 11 57 c6 31 14 66 17 79 5 16 2 22 -9 22 -10 0 -17 -11 -19 -27z
m-14 -52 c10 -15 -12 -61 -29 -61 -15 0 -20 26 -9 54 7 17 29 21 38 7z"/>
<path d="M293 633 c-8 -41 -7 -53 3 -53 7 0 16 16 20 35 3 19 12 39 20 46 15
13 35 4 29 -14 -14 -47 -15 -67 -1 -67 13 0 26 41 26 86 0 21 -4 23 -44 22
l-43 -2 -10 -53z"/>
<path d="M435 666 c-9 -13 -15 -37 -13 -53 3 -24 8 -28 41 -31 21 -2 37 1 37
7 0 6 -10 10 -22 8 -14 -1 -23 4 -26 16 -2 12 3 17 20 17 57 1 67 53 11 58
-25 2 -35 -2 -48 -22z m55 -6 c0 -12 -28 -25 -36 -17 -9 9 6 27 22 27 8 0 14
-5 14 -10z"/>
<path d="M551 639 c-6 -29 -9 -54 -6 -57 10 -11 23 13 33 61 7 37 7 47 -3 47
-8 0 -18 -22 -24 -51z"/>
<path d="M627 683 c-4 -3 -7 -20 -7 -37 0 -17 -7 -44 -15 -60 -24 -45 -20 -56
23 -56 64 0 90 52 31 64 -31 6 -32 26 0 26 22 0 41 19 41 41 0 10 6 20 13 22
6 3 -9 6 -34 6 -25 1 -49 -2 -52 -6z m43 -22 c0 -23 -16 -36 -25 -21 -9 14 1
40 15 40 5 0 10 -9 10 -19z m-16 -87 c13 -5 14 -9 5 -20 -6 -8 -17 -14 -25
-14 -20 0 -28 21 -13 31 17 11 14 10 33 3z"/>
<path d="M1006 668 c-32 -45 -17 -88 30 -88 39 0 57 24 52 73 -3 28 -7 32 -35
35 -23 2 -35 -3 -47 -20z m58 -7 c10 -15 -12 -61 -29 -61 -15 0 -22 50 -8 63
9 10 31 9 37 -2z"/>
<path d="M1135 675 c-19 -66 -22 -95 -9 -95 7 0 18 19 24 41 7 27 18 43 31 46
10 3 19 9 19 14 0 12 -62 6 -65 -6z"/>
<path d="M1362 678 c-18 -23 -23 -57 -12 -78 12 -23 61 -28 77 -7 17 20 23 59
12 79 -11 21 -61 25 -77 6z m53 -19 c4 -5 4 -21 1 -35 -9 -32 -46 -34 -46 -1
0 35 31 60 45 36z"/>
<path d="M1486 668 c-32 -45 -17 -88 30 -88 39 0 57 24 52 73 -3 28 -7 32 -35
35 -23 2 -35 -3 -47 -20z m60 -12 c7 -19 -13 -56 -31 -56 -15 0 -20 26 -9 54
8 20 33 21 40 2z"/>
</g>
</svg>
